<?xml version="1.0" encoding="utf-8"?><svg viewBox="0 0 20 20" xmlns="http://www.w3.org/2000/svg" xmlns:xlink="http://www.w3.org/1999/xlink"><style>:root>svg{display:none}:root>svg:target{display:block}</style><svg fill="none" viewBox="0 0 20 20" id="inst" xmlns="http://www.w3.org/2000/svg"><g clip-path="url(#aa)" fill="#FE0000"><path d="M4.805.027c-1.352.219-2.277.684-3.188 1.59C.965 2.269.563 2.907.281 3.73.004 4.543.02 4.164.02 10c0 5.836-.016 5.457.261 6.27.282.824.684 1.46 1.336 2.113.653.652 1.29 1.054 2.114 1.336.812.277.433.261 6.27.261 5.835 0 5.456.016 6.269-.261.824-.282 1.46-.684 2.113-1.336.652-.653 1.055-1.29 1.336-2.114.277-.812.262-.433.262-6.27 0-5.835.015-5.456-.262-6.269-.281-.824-.684-1.46-1.336-2.113C17.731.965 17.093.562 16.27.281c-.817-.277-.367-.258-6.153-.266C7.25.012 4.86.015 4.805.027Zm10.383 1.848c.761.152 1.293.433 1.855.973a3.529 3.529 0 0 1 1.082 1.964c.074.364.078.551.078 5.188s-.004 4.824-.078 5.187a3.529 3.529 0 0 1-1.082 1.965c-.562.54-1.094.82-1.855.973-.364.074-.551.078-5.188.078s-4.824-.004-5.187-.078c-.762-.152-1.293-.434-1.856-.973a3.529 3.529 0 0 1-1.082-1.965c-.074-.363-.078-.55-.078-5.187 0-4.637.004-4.824.078-5.188a3.529 3.529 0 0 1 1.082-1.965c.559-.535 1.09-.816 1.84-.972.32-.067.645-.074 5.176-.074 4.668-.004 4.851 0 5.215.074Z"/><path d="M15.034 3.371c-.418.121-.75.418-.898.805-.113.3-.094.758.047 1.035.488.992 1.906.984 2.37-.008.09-.191.106-.273.106-.574 0-.395-.066-.582-.312-.871-.285-.332-.883-.508-1.313-.387ZM9.105 4.906a5.69 5.69 0 0 0-1.476.504c-1.05.559-1.77 1.297-2.277 2.344-.391.809-.489 1.258-.489 2.246s.098 1.438.489 2.246a4.986 4.986 0 0 0 2.402 2.402c.809.391 1.258.489 2.246.489s1.438-.098 2.246-.489a4.868 4.868 0 0 0 1.629-1.23c.348-.398.535-.684.773-1.172.391-.809.489-1.258.489-2.246 0-.758-.047-1.098-.223-1.621a7.13 7.13 0 0 0-.605-1.238c-.793-1.184-2.07-2.012-3.45-2.239-.457-.07-1.304-.07-1.754.004Zm1.747 1.852c1.191.336 2.054 1.203 2.398 2.41.125.437.125 1.227 0 1.664-.348 1.215-1.203 2.07-2.418 2.418-.438.125-1.227.125-1.664 0-1.215-.348-2.07-1.203-2.418-2.418-.125-.438-.125-1.227 0-1.664.379-1.324 1.387-2.242 2.734-2.488.305-.059 1.047-.016 1.368.078Z"/></g><defs><clipPath id="aa"><path fill="#fff" d="M0 0h20v20H0z"/></clipPath></defs></svg><svg fill="none" viewBox="0 0 20 20" id="tg" xmlns="http://www.w3.org/2000/svg"><path d="M9.736 4.707C4.65 6.747.43 8.445.36 8.484a.836.836 0 0 0-.247.251.635.635 0 0 0-.113.41c0 .125.023.286.055.357.133.31.164.326 2.803 1.34l2.475.955.697 2.65c.762 2.904.739 2.834 1.087 3.01.21.11.469.115.684.016.086-.039.758-.507 1.497-1.041l1.342-.971 2.53 1.725c1.392.948 2.58 1.742 2.639 1.77.16.07.493.054.676-.028a.784.784 0 0 0 .4-.476c.023-.075.738-3.817 1.59-8.313 1.674-8.828 1.623-8.51 1.432-8.793-.165-.236-.333-.322-.645-.334L18.984 1 9.736 4.707Zm5.748-.429c-.097.098-1.963 1.899-4.145 4.005-2.737 2.646-3.996 3.888-4.054 4.002-.055.102-.094.145-.106.11a31.247 31.247 0 0 1-.211-.794c-.223-.841-.301-.999-.587-1.14a57.213 57.213 0 0 0-1.76-.7c-1.16-.444-1.56-.613-1.505-.632.102-.048 12.501-5.016 12.525-5.02a1 1 0 0 1-.157.17Zm1.267 6.215c-.657 3.454-1.2 6.292-1.208 6.3-.023.028-6.237-4.213-6.225-4.249.008-.031 8.606-8.356 8.618-8.344.004.003-.532 2.834-1.185 6.292ZM8.376 13.92c.743.507.805.558.743.61-.106.098-1.068.781-1.123.801-.031.016-.074-.082-.129-.306-.047-.181-.172-.66-.277-1.07-.18-.68-.188-.735-.11-.664.047.043.45.326.896.629Z" fill="#FE0000"/></svg></svg>