<svg width="161" height="40" viewBox="0 0 161 40" fill="none" xmlns="http://www.w3.org/2000/svg">
<path d="M2 0L2 40" stroke="#FE0000" stroke-width="4"/>
<path d="M34.32 30.384C27.952 30.384 23.28 25.744 23.28 19.408C23.28 13.008 28.08 8.176 34.288 8.176C37.424 8.176 40.336 9.424 42.384 11.696L39.76 14.384C38.384 12.784 36.4 11.888 34.224 11.888C30.192 11.888 27.28 14.96 27.28 19.248C27.28 23.568 30.256 26.672 34.448 26.672C36.72 26.672 38.704 25.744 40.048 24.08L42.64 26.704C40.624 29.072 37.712 30.384 34.32 30.384ZM49.7058 30.384C46.6978 30.384 44.5538 28.464 44.5538 25.776C44.5538 22.928 46.9538 20.848 50.3138 20.848C51.5938 20.848 52.9698 21.168 54.1538 21.808V21.296C54.1538 19.376 52.8418 18.096 50.8578 18.096C49.5778 18.096 48.5538 18.64 47.6898 19.76L45.4818 17.296C47.0818 15.664 48.9698 14.896 51.1138 14.896C55.0498 14.896 57.6738 17.488 57.6738 21.296V30H54.1538V28.432C53.0017 29.744 51.4338 30.384 49.7058 30.384ZM50.5378 27.536C52.3938 27.536 53.8018 26.352 54.0898 24.624C52.9378 23.824 51.8498 23.472 50.7618 23.472C49.0658 23.472 48.0418 24.304 48.0418 25.52C48.0418 26.736 49.0018 27.536 50.5378 27.536ZM61.3575 30V15.28H64.7175V17.296C65.6455 15.696 66.9895 14.896 68.7175 14.896C69.1975 14.896 69.6455 14.96 69.8375 14.992L69.3575 18.768C68.8775 18.608 68.3975 18.544 67.9815 18.544C66.0935 18.544 64.8775 19.888 64.8775 21.936V30H61.3575ZM88.8443 30.576L85.6123 27.344C83.7243 29.296 81.3243 30.384 78.6042 30.384C74.3483 30.384 71.2763 27.696 71.2763 24.016C71.2763 21.36 72.9083 18.96 75.7563 17.552C74.5083 16.112 73.8683 14.832 73.8683 13.328C73.8683 10.352 76.3323 8.176 79.6283 8.176C83.0843 8.176 85.6123 10.512 85.6123 13.68H81.8363C81.8363 12.304 81.0043 11.376 79.6923 11.376C78.4763 11.376 77.6443 12.176 77.6443 13.36C77.6443 14.192 78.0603 15.056 78.9883 15.984L85.1003 22.128C85.8043 20.496 86.1883 18.48 86.1883 16.24H92.4603V19.12H89.3563C89.1003 21.168 88.4923 22.992 87.6283 24.528L91.2763 28.112L88.8443 30.576ZM78.8923 27.056C80.5883 27.056 82.0603 26.352 83.2443 25.072L77.9963 19.728C76.1723 20.496 75.0523 21.904 75.0523 23.632C75.0523 25.68 76.5563 27.056 78.8923 27.056ZM101.169 30.48L92.945 8.56H97.009L102.161 22.416L107.377 8.56H111.185L102.769 30.48H101.169ZM113.42 30V15.28H116.94V30H113.42ZM115.18 12.752C113.964 12.752 113.004 11.792 113.004 10.576C113.004 9.36 113.964 8.4 115.18 8.4C116.396 8.4 117.356 9.36 117.356 10.576C117.356 11.792 116.396 12.752 115.18 12.752ZM128.891 30.384C127.035 30.384 125.307 29.68 124.155 28.432V30H120.795V7.28H124.315V16.944C125.435 15.728 127.067 14.896 129.051 14.896C133.019 14.896 136.155 18.288 136.155 22.64C136.155 26.96 133.019 30.384 128.891 30.384ZM128.347 27.184C130.747 27.184 132.571 25.296 132.571 22.64C132.571 20.016 130.747 18.096 128.347 18.096C125.883 18.096 124.091 20.016 124.091 22.64C124.091 25.264 125.883 27.184 128.347 27.184ZM146.145 30.384C141.601 30.384 138.401 27.152 138.401 22.672C138.401 18.192 141.569 14.896 145.889 14.896C149.985 14.896 153.121 17.872 153.121 22.224C153.121 22.672 153.089 23.056 152.993 23.664H142.049C142.433 25.776 143.937 27.088 146.337 27.088C148.065 27.088 149.505 26.416 150.561 25.104L152.737 27.312C151.169 29.296 148.769 30.384 146.145 30.384ZM142.081 20.944H149.473C149.057 18.928 147.745 17.776 145.793 17.776C143.841 17.776 142.497 18.992 142.081 20.944Z" fill="#161616"/>
</svg>
