<svg width="161" height="40" viewBox="0 0 161 40" fill="none" xmlns="http://www.w3.org/2000/svg">
<path d="M2 0L2 40" stroke="#FE0000" stroke-width="4"/>
<path d="M24.56 30V8.56H30.736C35.152 8.56 38.32 11.408 38.32 15.28C38.32 17.904 36.816 20.176 34.352 21.232L39.76 30H35.28L30.416 22H28.368V30H24.56ZM28.368 18.48H30.576C32.976 18.48 34.512 17.232 34.512 15.28C34.512 13.36 32.944 12.08 30.576 12.08H28.368V18.48ZM51.2825 30.384C46.3865 30.384 42.9625 26.704 42.9625 21.328V8.56H46.7705V21.2C46.7705 24.56 48.6265 26.8 51.4105 26.8C54.1625 26.8 56.0185 24.56 56.0185 21.2V8.56H59.7625V21.328C59.7625 26.672 56.2105 30.384 51.2825 30.384ZM64.7163 30V8.56H72.6843C79.0843 8.56 83.9163 13.168 83.9163 19.28C83.9163 25.424 79.1163 30 72.6843 30H64.7163ZM68.5243 26.416H72.7163C76.8763 26.416 79.9163 23.408 79.9163 19.28C79.9163 15.152 76.8763 12.144 72.7163 12.144H68.5243V26.416ZM97.5075 30.384C91.1395 30.384 86.4675 25.744 86.4675 19.408C86.4675 13.008 91.2675 8.176 97.4755 8.176C100.612 8.176 103.524 9.424 105.572 11.696L102.948 14.384C101.572 12.784 99.5875 11.888 97.4115 11.888C93.3795 11.888 90.4675 14.96 90.4675 19.248C90.4675 23.568 93.4435 26.672 97.6355 26.672C99.9075 26.672 101.892 25.744 103.236 24.08L105.828 26.704C103.812 29.072 100.9 30.384 97.5075 30.384ZM106.293 30L114.965 8.08H116.565L125.173 30H121.077L119.541 25.904H111.829L110.293 30H106.293ZM113.173 22.384H118.197L115.701 15.696L113.173 22.384ZM128.216 30V8.56H134.392C138.808 8.56 141.976 11.408 141.976 15.28C141.976 17.904 140.472 20.176 138.008 21.232L143.416 30H138.936L134.072 22H132.024V30H128.216ZM132.024 18.48H134.232C136.632 18.48 138.168 17.232 138.168 15.28C138.168 13.36 136.6 12.08 134.232 12.08H132.024V18.48ZM152.155 30.48C149.019 30.48 146.331 29.008 144.699 26.352L147.515 24.016C148.731 26.096 150.331 27.024 152.219 27.024C154.171 27.024 155.451 26 155.451 24.368C155.451 22.96 154.491 22 151.835 20.88C147.803 19.184 146.011 17.168 146.011 14.256C146.011 10.704 148.731 8.176 152.571 8.176C155.195 8.176 157.531 9.36 159.227 11.536L156.571 13.904C155.387 12.4 154.075 11.632 152.539 11.632C150.875 11.632 149.819 12.56 149.819 14.032C149.819 15.408 150.779 16.304 153.307 17.36C157.467 19.12 159.259 21.2 159.259 24.112C159.259 27.856 156.315 30.48 152.155 30.48Z" fill="#161616"/>
</svg>
